{"title":"Kaanchi (2014) - DVDScr - x264 - 1xCD - SAP [DDR]","uid":10100657,"size":740448406,"categoryP":"video","categoryS":"movies","magnet":"?xt=urn:btih:02b7770d2bc06fbc77fc04e6c181cd7b3a789d54&amp;dn=Kaanchi+%282014%29+-+DVDScr+-+x264+-+1xCD+-+SAP+%5BDDR%5D&amp;tr=udp%3A%2F%2Ftracker.openbittorrent.com%3A80&amp;tr=udp%3A%2F%2Fopen.demonii.com%3A1337&amp;tr=udp%3A%2F%2Ftracker.coppersurfer.tk%3A6969&amp;tr=udp%3A%2F%2Fexodus.desync.com%3A6969","seeders":1,"leechers":0,"uploader":"SaM","files":13,"time":1399393282,"description":"- BollyWooD MoviE -\nKaanchi\n\n**DVDScr / x264 / 1xCD / SAP**\n\n\nSource                              :  DVDScr[ICTV]\nComplete name                            : Kaanchi (2014) - DVDScr - x264 - 1xCD - SAP [DDR].mp4\nFormat                                  : MPEG-4\nFormat profile                          : Base Media\nCodec ID                                : isom\nFile size                                : 700 MiB\nDuration                                : 2h 30mn\nOverall bit rate                        : 650 Kbps\n\nVideo\nID                                      : 1\nFormat                                  : AVC\nFormat/Info                              : Advanced Video Codec\nFormat profile                          : &lt;a class=&quot;__cf_email__&quot; href=&quot;/cdn-cgi/l/email-protection&quot; data-cfemail=&quot;fab79b9394bab6c9d4cb&quot;&gt;[email&amp;#160;protected]&lt;/a&gt;&lt;script cf-hash='f9e31' type=&quot;text/javascript&quot;&gt;\n/* &lt;![CDATA[ */!function(){try{var t=&quot;currentScript&quot;in document?document.currentScript:function(){for(var t=document.getElementsByTagName(&quot;script&quot;),e=t.length;e--;)if(t[e].getAttribute(&quot;cf-hash&quot;))return t[e]}();if(t&amp;&amp;t.previousSibling){var e,r,n,i,c=t.previousSibling,a=c.getAttribute(&quot;data-cfemail&quot;);if(a){for(e=&quot;&quot;,r=parseInt(a.substr(0,2),16),n=2;a.length-n;n+=2)i=parseInt(a.substr(n,2),16)^r,e+=String.fromCharCode(i);e=document.createTextNode(e),c.parentNode.replaceChild(e,c)}}}catch(u){}}();/* ]]&gt; */&lt;/script&gt;\nFormat settings, CABAC                  : Yes\nFormat settings, ReFrames                : 3 frames\nCodec ID                                : avc1\nCodec ID/Info                            : Advanced Video Coding\nDuration                                : 2h 30mn\nBit rate                                : 568 Kbps\nMaximum bit rate                        : 3 919 Kbps\nWidth                                    : 608 pixels\nHeight                                  : 256 pixels\nDisplay aspect ratio                    : 2.40:1\nFrame rate mode                          : Constant\nFrame rate                              : 25.000 fps\nColor space                              : YUV\nChroma subsampling                      : 4:2:0\nBit depth                                : 8 bits\nScan type                                : Progressive\nBits/(Pixel*Frame)                      : 0.146\nStream size                              : 611 MiB (87%)\nTitle                                    : Track 1 [DDR]\n\nAudio\nID                                      : 2\nFormat                                  : MPEG Audio\nFormat version                          : Version 1\nFormat profile                          : Layer 3\nMode                                    : Joint stereo\nMode extension                          : MS Stereo\nCodec ID                                : 6B\nDuration                                : 2h 30mn\nBit rate mode                            : Constant\nBit rate                                : 80.0 Kbps\nMaximum bit rate                        : 83.5 Kbps\nChannel(s)                              : 2 channels\nSampling rate                            : 32.0 KHz\nCompression mode                        : Lossy\nStream size                              : 86.1 MiB (12%)\nTitle                                    : Track 1 [DDR]\n\n[ SCREENS ]\n\n &lt;a href=&quot;\nhttp://img843.imageshack.us/img843/8428/8sx6.png&quot; rel=&quot;nofollow&quot; target=&quot;_NEW&quot;&gt;\nhttp://img843.imageshack.us/img843/8428/8sx6.png&lt;/a&gt;\n &lt;a href=&quot;\nhttp://img838.imageshack.us/img838/363/chh6.png&quot; rel=&quot;nofollow&quot; target=&quot;_NEW&quot;&gt;\nhttp://img838.imageshack.us/img838/363/chh6.png&lt;/a&gt;\n &lt;a href=&quot;\nhttp://img835.imageshack.us/img835/1952/i6ny.png&quot; rel=&quot;nofollow&quot; target=&quot;_NEW&quot;&gt;\nhttp://img835.imageshack.us/img835/1952/i6ny.png&lt;/a&gt;\n &lt;a href=&quot;\nhttp://img838.imageshack.us/img838/7404/3p0w.png&quot; rel=&quot;nofollow&quot; target=&quot;_NEW&quot;&gt;\nhttp://img838.imageshack.us/img838/7404/3p0w.png&lt;/a&gt;\n &lt;a href=&quot;\nhttp://img841.imageshack.us/img841/9297/d6oy.png&quot; rel=&quot;nofollow&quot; target=&quot;_NEW&quot;&gt;\nhttp://img841.imageshack.us/img841/9297/d6oy.png&lt;/a&gt;\n &lt;a href=&quot;\nhttp://img843.imageshack.us/img843/5353/v6op.png&quot; rel=&quot;nofollow&quot; target=&quot;_NEW&quot;&gt;\nhttp://img843.imageshack.us/img843/5353/v6op.png&lt;/a&gt;\n &lt;a href=&quot;\nhttp://img836.imageshack.us/img836/7355/f64c.png&quot; rel=&quot;nofollow&quot; target=&quot;_NEW&quot;&gt;\nhttp://img836.imageshack.us/img836/7355/f64c.png&lt;/a&gt;\n &lt;a href=&quot;\nhttp://img843.imageshack.us/img843/7938/t2g2.png&quot; rel=&quot;nofollow&quot; target=&quot;_NEW&quot;&gt;\nhttp://img843.imageshack.us/img843/7938/t2g2.png&lt;/a&gt;\n\n[ INFO ]\n\nEnglish Subs Included","torrent":{"xt":"urn:btih:02b7770d2bc06fbc77fc04e6c181cd7b3a789d54","amp;dn":"Kaanchi+%282014%29+-+DVDScr+-+x264+-+1xCD+-+SAP+%5BDDR%5D","amp;tr":["udp%3A%2F%2Ftracker.openbittorrent.com%3A80","udp%3A%2F%2Fopen.demonii.com%3A1337","udp%3A%2F%2Ftracker.coppersurfer.tk%3A6969","udp%3A%2F%2Fexodus.desync.com%3A6969"],"infoHash":"02b7770d2bc06fbc77fc04e6c181cd7b3a789d54","infoHashBuffer":{"type":"Buffer","data":[2,183,119,13,43,192,111,188,119,252,4,230,193,129,205,123,58,120,157,84]},"announce":[],"urlList":[]}}